<?xml version="1.0" encoding="utf-8"?>
<!-- Generator: Adobe Illustrator 23.0.5, SVG Export Plug-In . SVG Version: 6.00 Build 0)  -->
<svg version="1.1" id="Calque_1" xmlns="http://www.w3.org/2000/svg" xmlns:xlink="http://www.w3.org/1999/xlink" x="0px" y="0px"
	 viewBox="0 0 178 46" style="enable-background:new 0 0 178 46;" xml:space="preserve">
<style type="text/css">
	.st0{enable-background:new    ;}
	.st1{fill:#4ADE80;}
</style>
<g class="st0">
	<path class="st1" d="M40.9,8.9l0.4,0.6c0.5,0.5,1,1.3,1.4,2.1l-9.8,3.7c-0.3-0.3-0.8-0.7-1.3-1l-0.8-0.7l1.4-2.3l-1.7,1.5
		c-2.2-1.4-4.4-2.1-6.7-2.1c-1.2,0-2.4,0.2-3.6,0.6c-1.2,0.4-2.3,1-3.3,1.9L15,12.1c0.2,0.3,0.4,0.6,0.6,0.8s0.4,0.5,0.5,0.8
		c-1.3,1-2.2,2.2-2.9,3.7c-0.7,1.5-0.9,3.1-0.9,5c0,0.2-0.1,0.4,0,0.7c0,0.2,0.1,0.5,0.1,0.7c0,0.1,0,0.2,0,0.3c0,0.1,0,0.2,0,0.3
		l-2.8,0.3l2.7,1c0.3,1.8,0.9,3.3,1.6,4.4c0.7,1.1,1.8,2.1,3.3,3l-1.3,2.3c0.5-0.4,0.9-0.8,1.4-1.2c0.5-0.4,0.9-0.8,1.4-1.1
		c1,0.5,2,0.8,3,1.1c1,0.3,2,0.4,3,0.4c1.4,0,2.8-0.3,4.1-0.8c1.3-0.5,2.6-1.5,3.7-2.8l5.4,1.7l-1.4,1.6l2-1.4l3.9,1.3
		c-1,1.8-2.2,3.4-3.5,4.6c-1.3,1.2-2.8,2.3-4.3,3.3l-0.6-1.6l0.2,1.8c-1.6,0.8-3.3,1.5-5,1.9c-1.7,0.4-3.5,0.6-5.4,0.7
		c-1.1,0-2.2-0.1-3.4-0.3c-1.2-0.2-2.3-0.4-3.5-0.8l2.1-2.3l-2.9,2c-2.2-0.8-4.2-1.7-6.1-2.9c-1.9-1.2-3.5-2.7-4.9-4.5l2-2.5l-2,1.2
		c-1.1-1.6-1.9-3.4-2.5-5.4c-0.6-2-1-4.1-1-6.4c0.1-1,0.2-2,0.3-3c0.1-1,0.3-1.9,0.5-2.8l2-0.6c-0.4,0-0.9,0-1.3,0
		c-0.4,0-0.9,0-1.2,0c0.7-2,1.6-3.8,2.9-5.4c1.3-1.6,2.6-3,3.9-4.2l2.6,0.9c-0.5-0.3-0.9-0.6-1.3-0.9C9.8,6.6,9.3,6.3,8.9,6.1
		c1.3-1,2.7-1.9,4.2-2.5c1.5-0.6,3.1-1.2,4.6-1.6l1,2.1c-0.1-0.5-0.2-0.9-0.3-1.4c-0.1-0.5-0.2-0.9-0.3-1.3c0.9-0.2,1.7-0.4,2.6-0.5
		c0.8-0.1,1.6-0.2,2.4-0.2c1.7,0.1,3.3,0.3,5,0.6c1.6,0.3,3.3,0.8,4.9,1.5l-1.7,1.8c0.3-0.2,0.7-0.5,1.2-0.8
		c0.5-0.3,0.9-0.5,1.2-0.8c1.2,0.6,2.4,1.3,3.7,2c1.2,0.8,2.4,1.8,3.5,3l-1.9,2L40.9,8.9z M35.3,9.5C33.6,8,31.9,6.9,30,6.3
		c-1.8-0.6-3.8-1-6-1c-2.4,0.1-4.6,0.5-6.7,1.3c-2.1,0.8-4,2-5.6,3.5c-1.6,1.5-3,3.3-3.9,5.5c-1,2.1-1.5,4.6-1.6,7.4
		c0,2.7,0.6,5.1,1.6,7.2c1,2.1,2.3,4,4,5.5c1.7,1.5,3.6,2.7,5.7,3.6c2.1,0.8,4.3,1.3,6.6,1.4c2-0.1,3.9-0.5,5.9-1.2
		c2-0.7,3.7-1.8,5.3-3.3l-1.4-0.3c-1.5,1-3.1,1.9-4.8,2.5c-1.7,0.6-3.4,0.9-5.2,1c-2.1,0-4.2-0.4-6.2-1.2c-2-0.8-3.8-1.9-5.3-3.4
		c-1.5-1.4-2.7-3.2-3.6-5.2c-0.9-2-1.3-4.3-1.1-6.8c0-2.4,0.5-4.6,1.4-6.6c0.9-2,2.1-3.7,3.7-5.1c1.5-1.4,3.3-2.5,5.3-3.3
		c2-0.8,4.1-1.2,6.3-1.2c1.6,0,3.2,0.2,4.9,0.8c1.7,0.6,3.3,1.4,4.8,2.5L35.3,9.5z"/>
	<path class="st1" d="M55.7,33.6c0.3,0.1,0.6,0.2,1,0.3c0.4,0.1,0.7,0.2,1,0.3L57.7,45L48,45.2l-0.2-4.5l2.7-0.9
		c-0.5-0.1-0.9-0.1-1.4-0.1c-0.5,0-0.9,0-1.3-0.1L47.5,28l2.6-1.1h-2.3V8.1l2.4-0.9h-2.4V1.2l9.8-0.1l0.5,16.5L55.8,18l1.8,0.6
		l0.1,14.9L55.7,33.6z M53.3,40.6L53,5.3l-0.7,0.3l-0.1,35.3L53.3,40.6z"/>
	<path class="st1" d="M101.1,38.3c0.2,0.1,0.5,0.2,0.8,0.3s0.5,0.2,0.8,0.3v6.3L94.7,39l0.7-2.8l-1.3,1.7l-10.6-9l0.7-1.8
		c-0.2,0.2-0.4,0.4-0.6,0.7c-0.2,0.3-0.4,0.5-0.5,0.7l-6.7-5.8v7.2l-2,0.8c0.3,0,0.7,0,1,0c0.3,0,0.7,0,1,0l0.4,7.4l-2,1
		c0.3,0,0.5,0,0.9,0c0.3,0,0.6,0,0.8,0V45h-3.7l-0.3-2.1c-0.3,0.8-0.5,1.5-0.7,2.1h-5.2v-4.9l2.5-0.8L66.3,39L66.3,26l2.3-0.8h-2.2
		L66.3,9.5l2-0.3l-2-0.5V1L72,5.8l-0.8,1.9L73,6.1l13.4,12l0.1,2.5c0.2-0.2,0.4-0.5,0.6-0.7c0.2-0.3,0.4-0.5,0.6-0.7l5.1,4.4v-7.4
		l2.2-0.8c-0.4,0-0.8,0-1.1,0s-0.7,0-1.1,0L92.3,4.6l2.6-0.9c-0.4,0-0.8,0-1.1,0c-0.4,0-0.7,0-1.1,0V1.2h9.9v7.2h-2.1l2.1,0.7
		l0.6,16.4l-2.8,0.5l2.3,0.8l-0.1,11.5H101.1z M98.1,35.8l0.1-30.4l-1.1,0.1v27.6L70.7,10.6L70.7,41l1.2-0.4l0.2-27.8L98.1,35.8z"/>
	<path class="st1" d="M139.3,37.5c0.3,0,0.6,0,0.9,0c0.3,0,0.6,0,0.9,0V45h-6.9l-0.3-1.6V45l-12.9,0.1l0.1-2.3
		c-0.2,0.4-0.5,0.7-0.7,1.1c-0.3,0.4-0.5,0.7-0.7,1.1h-7.9V30.4l2.3-0.8l-2.8-0.1l0.4-18.7l0.1-2.3l2.3-0.7l-2.6-0.3l0.3-6.4
		l10.4-0.1l1.4,2l-0.4-1.9l12.8-0.1l0.1,1.9l0.2-1.8h4.8V8l-3,0.6l3,0.4v2l-9.3,0.4l-1.7-2.1c0,0.3,0.1,0.6,0.2,0.9
		c0.1,0.3,0.1,0.6,0.2,0.8h-8.7v7l7.4-0.4l0.1,2c0.1-0.3,0.3-0.5,0.4-0.8c0.2-0.3,0.3-0.5,0.4-0.8l11,0.1l0.5,6.8l-2.6,0.5l2.2,0.3
		v2.3h-9.4l-1.2-2.1c0,0.3,0.1,0.7,0.1,1.1c0,0.4,0,0.8,0,1.1l-8.9-0.1l0.4,2.4l-3,0.5l2.6,0.4V35l19.3,0.1l0.1,2.1L139.3,37.5z
		 M136.8,40.5l-0.1-1.1l-19.5,0.1l0.4-16l19-0.1l0.1-1l-19.6-0.1l0.1-15.6l19.5-0.3V5.5h-20.5l-0.1,35.1L136.8,40.5z"/>
	<path class="st1" d="M172.8,5.1l2,0.2l0.1,5.9h-4.9l-0.6-1.5c0,0.3,0,0.5,0,0.8c0,0.3,0,0.5,0,0.8h-4.3l0.5,11.1l-2.4,0.9l1.9,0.3
		l0.1,16.4l-2.4,1.1c0.5,0,0.9,0,1.2,0c0.3,0,0.7,0,1.1,0V45l-9.9-0.1l0.1-4l2.3-1h-2.3l0.1-11.9l2.4-0.9l-2.9-0.5l0.6-11.3l1.6-0.7
		h-1.8v-3.5h-3.9l-0.7-1.6l-0.5,1.6h-4.6V5.9l1.4-0.5l-1.5-0.6l0.1-3.5h5.7l0.4,1.6l0.3-1.6l12,0.1l0.4,1.7c0.1-0.3,0.3-0.6,0.4-0.9
		s0.2-0.6,0.3-0.9l9.6,0.1l0.1,3.2L172.8,5.1z M170.5,6.8V5.6L150,5.7l-0.1,1.1l9.8,0.1l0.1,33.6l0.9,0.1l-0.5-33.4L170.5,6.8z"/>
</g>
</svg>
